<svg width="64" height="16" viewBox="0 0 64 16" fill="none" xmlns="http://www.w3.org/2000/svg">
<path d="M5.04836 7.42C5.55503 7.42 5.99503 7.35667 6.36836 7.23C6.74836 7.10333 7.05836 6.93 7.29836 6.71C7.54503 6.48333 7.72836 6.21667 7.84836 5.91C7.96836 5.60333 8.02836 5.26667 8.02836 4.9C8.02836 4.16667 7.78503 3.60333 7.29836 3.21C6.81836 2.81667 6.08169 2.62 5.08836 2.62H3.36836V7.42H5.04836ZM11.9684 15H9.53836C9.07836 15 8.74503 14.82 8.53836 14.46L5.49836 9.83C5.38503 9.65667 5.25836 9.53333 5.11836 9.46C4.98503 9.38667 4.78503 9.35 4.51836 9.35H3.36836V15H0.67836V0.539999H5.08836C6.06836 0.539999 6.90836 0.643332 7.60836 0.849999C8.31503 1.05 8.89169 1.33333 9.33836 1.7C9.79169 2.06667 10.125 2.50667 10.3384 3.02C10.5517 3.52667 10.6584 4.08667 10.6584 4.7C10.6584 5.18667 10.585 5.64667 10.4384 6.08C10.2984 6.51333 10.0917 6.90667 9.81836 7.26C9.55169 7.61333 9.21836 7.92333 8.81836 8.19C8.42503 8.45667 7.97503 8.66667 7.46836 8.82C7.64169 8.92 7.80169 9.04 7.94836 9.18C8.09503 9.31333 8.22836 9.47333 8.34836 9.66L11.9684 15ZM19.0859 8.69C19.0859 8.37 19.0392 8.07 18.9459 7.79C18.8592 7.50333 18.7259 7.25333 18.5459 7.04C18.3659 6.82667 18.1359 6.66 17.8559 6.54C17.5825 6.41333 17.2625 6.35 16.8959 6.35C16.1825 6.35 15.6192 6.55333 15.2059 6.96C14.7992 7.36667 14.5392 7.94333 14.4259 8.69H19.0859ZM14.3759 10.18C14.4159 10.7067 14.5092 11.1633 14.6559 11.55C14.8025 11.93 14.9959 12.2467 15.2359 12.5C15.4759 12.7467 15.7592 12.9333 16.0859 13.06C16.4192 13.18 16.7859 13.24 17.1859 13.24C17.5859 13.24 17.9292 13.1933 18.2159 13.1C18.5092 13.0067 18.7625 12.9033 18.9759 12.79C19.1959 12.6767 19.3859 12.5733 19.5459 12.48C19.7125 12.3867 19.8725 12.34 20.0259 12.34C20.2325 12.34 20.3859 12.4167 20.4859 12.57L21.1959 13.47C20.9225 13.79 20.6159 14.06 20.2759 14.28C19.9359 14.4933 19.5792 14.6667 19.2059 14.8C18.8392 14.9267 18.4625 15.0167 18.0759 15.07C17.6959 15.1233 17.3259 15.15 16.9659 15.15C16.2525 15.15 15.5892 15.0333 14.9759 14.8C14.3625 14.56 13.8292 14.21 13.3759 13.75C12.9225 13.2833 12.5659 12.71 12.3059 12.03C12.0459 11.3433 11.9159 10.55 11.9159 9.65C11.9159 8.95 12.0292 8.29333 12.2559 7.68C12.4825 7.06 12.8059 6.52333 13.2259 6.07C13.6525 5.61 14.1692 5.24667 14.7759 4.98C15.3892 4.71333 16.0792 4.58 16.8459 4.58C17.4925 4.58 18.0892 4.68333 18.6359 4.89C19.1825 5.09667 19.6525 5.4 20.0459 5.8C20.4392 6.19333 20.7459 6.68 20.9659 7.26C21.1925 7.83333 21.3059 8.49 21.3059 9.23C21.3059 9.60333 21.2659 9.85667 21.1859 9.99C21.1059 10.1167 20.9525 10.18 20.7259 10.18H14.3759ZM32.1555 4.74L28.0855 15H25.8455L21.7755 4.74H23.8155C24.0022 4.74 24.1555 4.78333 24.2755 4.87C24.4022 4.95667 24.4855 5.06667 24.5255 5.2L26.5055 10.68C26.6122 11 26.7055 11.3133 26.7855 11.62C26.8655 11.9267 26.9355 12.2333 26.9955 12.54C27.0622 12.2333 27.1355 11.9267 27.2155 11.62C27.2955 11.3133 27.3922 11 27.5055 10.68L29.5255 5.2C29.5722 5.06667 29.6555 4.95667 29.7755 4.87C29.8955 4.78333 30.0389 4.74 30.2055 4.74H32.1555ZM36.032 4.74V15H33.552V4.74H36.032ZM36.372 1.75C36.372 1.96333 36.3286 2.16333 36.242 2.35C36.1553 2.53667 36.0386 2.7 35.892 2.84C35.752 2.98 35.5853 3.09333 35.392 3.18C35.1986 3.26 34.992 3.3 34.772 3.3C34.5586 3.3 34.3553 3.26 34.162 3.18C33.9753 3.09333 33.812 2.98 33.672 2.84C33.532 2.7 33.4186 2.53667 33.332 2.35C33.252 2.16333 33.212 1.96333 33.212 1.75C33.212 1.53 33.252 1.32333 33.332 1.13C33.4186 0.936666 33.532 0.77 33.672 0.63C33.812 0.489999 33.9753 0.379999 34.162 0.3C34.3553 0.213333 34.5586 0.17 34.772 0.17C34.992 0.17 35.1986 0.213333 35.392 0.3C35.5853 0.379999 35.752 0.489999 35.892 0.63C36.0386 0.77 36.1553 0.936666 36.242 1.13C36.3286 1.32333 36.372 1.53 36.372 1.75ZM45.1601 8.69C45.1601 8.37 45.1134 8.07 45.0201 7.79C44.9334 7.50333 44.8001 7.25333 44.6201 7.04C44.4401 6.82667 44.2101 6.66 43.9301 6.54C43.6567 6.41333 43.3367 6.35 42.9701 6.35C42.2567 6.35 41.6934 6.55333 41.2801 6.96C40.8734 7.36667 40.6134 7.94333 40.5001 8.69H45.1601ZM40.4501 10.18C40.4901 10.7067 40.5834 11.1633 40.7301 11.55C40.8767 11.93 41.0701 12.2467 41.3101 12.5C41.5501 12.7467 41.8334 12.9333 42.1601 13.06C42.4934 13.18 42.8601 13.24 43.2601 13.24C43.6601 13.24 44.0034 13.1933 44.2901 13.1C44.5834 13.0067 44.8367 12.9033 45.0501 12.79C45.2701 12.6767 45.4601 12.5733 45.6201 12.48C45.7867 12.3867 45.9467 12.34 46.1001 12.34C46.3067 12.34 46.4601 12.4167 46.5601 12.57L47.2701 13.47C46.9967 13.79 46.6901 14.06 46.3501 14.28C46.0101 14.4933 45.6534 14.6667 45.2801 14.8C44.9134 14.9267 44.5367 15.0167 44.1501 15.07C43.7701 15.1233 43.4001 15.15 43.0401 15.15C42.3267 15.15 41.6634 15.0333 41.0501 14.8C40.4367 14.56 39.9034 14.21 39.4501 13.75C38.9967 13.2833 38.6401 12.71 38.3801 12.03C38.1201 11.3433 37.9901 10.55 37.9901 9.65C37.9901 8.95 38.1034 8.29333 38.3301 7.68C38.5567 7.06 38.8801 6.52333 39.3001 6.07C39.7267 5.61 40.2434 5.24667 40.8501 4.98C41.4634 4.71333 42.1534 4.58 42.9201 4.58C43.5667 4.58 44.1634 4.68333 44.7101 4.89C45.2567 5.09667 45.7267 5.4 46.1201 5.8C46.5134 6.19333 46.8201 6.68 47.0401 7.26C47.2667 7.83333 47.3801 8.49 47.3801 9.23C47.3801 9.60333 47.3401 9.85667 47.2601 9.99C47.1801 10.1167 47.0267 10.18 46.8001 10.18H40.4501ZM63.747 4.74L60.487 15H58.507C58.2803 15 58.1236 14.8533 58.037 14.56L56.197 8.63C56.137 8.43 56.0803 8.23333 56.027 8.04C55.9803 7.84 55.9403 7.64 55.907 7.44C55.867 7.64 55.8203 7.84333 55.767 8.05C55.7203 8.25 55.667 8.45 55.607 8.65L53.737 14.56C53.657 14.8533 53.4803 15 53.207 15H51.307L48.057 4.74H50.027C50.207 4.74 50.3603 4.78333 50.487 4.87C50.6136 4.95667 50.697 5.06667 50.737 5.2L52.207 10.68C52.2803 10.98 52.3436 11.2733 52.397 11.56C52.457 11.8467 52.507 12.1333 52.547 12.42C52.6203 12.1333 52.697 11.8467 52.777 11.56C52.8636 11.2733 52.9536 10.98 53.047 10.68L54.747 5.18C54.787 5.04667 54.8636 4.93667 54.977 4.85C55.097 4.76333 55.2403 4.72 55.407 4.72H56.497C56.6703 4.72 56.817 4.76333 56.937 4.85C57.0636 4.93667 57.147 5.04667 57.187 5.18L58.837 10.68C58.9236 10.98 59.0036 11.2767 59.077 11.57C59.157 11.8567 59.2336 12.1433 59.307 12.43C59.3936 11.8633 59.517 11.28 59.677 10.68L61.187 5.2C61.2336 5.06667 61.317 4.95667 61.437 4.87C61.557 4.78333 61.7003 4.74 61.867 4.74H63.747Z" fill="#07233C"/>
</svg>
